<mxfile host="65bd71144e">
    <diagram id="U8vYm4H8WRFvBKnTJwXP" name="Page-1">
        <mxGraphModel dx="942" dy="590" grid="1" gridSize="10" guides="1" tooltips="1" connect="1" arrows="1" fold="1" page="1" pageScale="1" pageWidth="850" pageHeight="1100" math="0" shadow="0">
            <root>
                <mxCell id="0"/>
                <mxCell id="1" parent="0"/>
                <mxCell id="2" value="Threat Data (OSINT Feeds)" style="swimlane;whiteSpace=wrap;html=1;" vertex="1" parent="1">
                    <mxGeometry x="10" y="10" width="320" height="210" as="geometry"/>
                </mxCell>
                <mxCell id="3" value="" style="shape=image;verticalLabelPosition=bottom;labelBackgroundColor=default;verticalAlign=top;aspect=fixed;imageAspect=0;image=https://attack.mitre.org/theme/images/ATT&amp;CK_red.png;" vertex="1" parent="2">
                    <mxGeometry x="70" y="50" width="97.2" height="20" as="geometry"/>
                </mxCell>
                <mxCell id="4" value="" style="shape=image;verticalLabelPosition=bottom;labelBackgroundColor=default;verticalAlign=top;aspect=fixed;imageAspect=0;image=https://securitymadein.lu/images/logo_circl.jpg;" vertex="1" parent="2">
                    <mxGeometry x="10" y="90" width="200" height="100" as="geometry"/>
                </mxCell>
                <mxCell id="5" value="" style="shape=image;verticalLabelPosition=bottom;labelBackgroundColor=default;verticalAlign=top;aspect=fixed;imageAspect=0;image=data:image/png,iVBORw0KGgoAAAANSUhEUgAAAOEAAADgCAMAAADCMfHtAAAAmVBMVEX///8ARlsAQFYAN08AO1J1j5pthZAANU4AMkwAPFObq7LT3+MAQ1mdsrr7/f3n7e9igIy0vsQbVmk4anvDzdFEcH9IdoVWe4rt8vMALkkASV72+Pne5ui3xMlaeojr7/F7l6EgV2qKoaq5yc6ousA0YnLP2d0AJEIAHj4iX3FBZ3dQcX8GTmJ/m6Zhe4iNoapahZIAFDl+k51qxU8/AAAGZ0lEQVR4nO2a6XajOBCFjYQNsoWh44XNdrzS0wlOZ+b9H26QxCLhfRK7Tyb3++UIBLoqqeqKk04HAAAAAAAAAAAAAAAAAAAAAAAAAAAAAAAAAAAAAAAAAAAAAAAAAAAAAAAAAAAAgA8x2GR/egh3pvfz7U8P4c50ae9PD+HOQOHX55srjAazx43kXpxV6P3163EjuRfnFTqjx43kXkDh40ZyL6DwcSO5hnQ2yLJs5t/S51DhbDwfD4byp1RY/J2lNzwxWgRBsDjoMRfNJb3ldjY0+vREH+MMMNyLph96S9Z7ybnNSLJ6Xc6fmwFrT1Ys1trT2wpnvdyNYzKpFS6TOKa7Gw4gnksIcbft5r5DGhilk7l20c9Z0WdsKBzZhDh97Z7QYZxbBZwT5lhedWFASQt7cVphllM2XXZHsRosHYXxaL/PWX71whiOxCjI67DV3rctA+JOmzj7T0Un21Q4IUVTo3CQMKM/69ZXiNWCBCcVpom9kzZGCfJswkX0opxqk3mezJUvoYOjCtUcq1Cwl1riZYVRIvpwRh3HoYzwA4V6DOnpGPbpkx4sz06UbVvS6bUKu2qq2fKYwvwteHt7W7zkUi6t77mscCkeS5662yLTzNfBjrumQrIQT674fVLhzt7rbylWaevHRfxcxsfiq9a6FgrL7d1J/b68J6ls70WFqRDIR7VNjgb7eqRSoRudGpGpkNKNfrGuFteXjS0VEyoCNDcvKIX13HoiirTKRxcVbhyhor3yFUrhyURhKIxi1zhM3K5w+MLFRi/eSVo9Wgr9FdeW8kWFco3z4++8RWEaOx9UmBGxQAdiqXKzwrQUpnIqqr10UeGafY7Cjk2NOna7wq6IXk+mm1auORZDWtW06xQ6x0+rNymc2IF+8WaFqagDxV6W24YZl47tQ1KF+aJCT27vydF0cpPCLeV6qrlZ4dYWGTLtDJmeRyR6Lu0M+2JULKwEX1Q4i2UJyvtHwnhTLu2MKFkXs+F7/n9S+KtKH6J8aRHrVPVwGobhdPTExAywpvZeroehLOuc2db7NjP9klTIJ9Oa93MKo9B1KKXO33L9ePGuVBhf9TljIPyMK7pmMoj6hGuepnSXYbOwLiv089KbcWLzVVcXqTwNbyzN0zmFneEmeFntFmtpqDa9tWodVz/OIyLHc/lTDJnp9qHtSy2+bBbWFb4029m87spY0Mxe25fy1VmFBZF/ck2fJxJFohyUEMRX2oOO+FKr3qhXKOyk/YTatRhm1eW/7UvZ+Rh+BOlnLDW5M+GUdV+j9mEYqo3oygruXF0tFFk/JE6pUiQ0TSGZhjVn9+FHGL6KYhiWf4nUQF5NhbzOPdHaEqagnA6lkLbOh/xAoWgeeIElzX193JEKnSurxYfIxNqzq2qzkQFtnGSrHnbmMp2W21vVf8PJDndCodc5wiyUB43qCHpTPfwQwsjwXbX1opWZa9oK5SrkZRGKdgcBS+WmPvhUoBC387x81cMUyjyjWbW9EJzUktoKO/80ibeTygVu7B9fVB7WOqBUSEdklZ9qHqZQ+BnLbpL4TDg3ux7igUJxAOFVmZXxt/RKrmzd8fNS6Z0erVD4GRJqg5RxqXzagUKZbOuQyzTMtF0XqYV44l0h0WrRoxRKP2NYUTnq+jzQUjibSGdapc9n6by0xCS/WjRr3je+To6lDw8enGn20qfpAxnKZVqZIa1apINtV34H0E7JUhHPyxnyA2YqDnZe/TtdS8fgVLP5IIVpop9oFT2xuValaHVKd+OCwvrKikaSZtemVH5Lo9b77/5y5Mqq7jRWsWfbDh919/3f3RFV7qh2ysrTOK7Gz+XnK1QbyTzWj2Up3mgKDeyVnkfGvDTQTHwrlGPuNbu2R5QdtRlTF7XZOfxeajjiT1I4XJADy6vKFlkcU8i5zXvPxs3jFeXaHYQutSXfM64VsX5pZucxCjO3OHPFbY+1jotWW42lL34rbMbz3fqgEPj7hKnv9uKENDG++mXTpIwtLy6Slad5+oFL28TLT1c4+CF4brVGsnWm3SGZb7LjeSGaL0cJo/zp3TvUv1lPc+7Yya/AG5u9fhyibZdv/r8Y/wug8OsDhV8fKPz6QOHXBwq/Pt9AYRxcvulLk83Hl28CAAAAAAAAAAAAAAAAAAAAAAAAAAAAAAAAAAAAAAAAAAAAAAAAAAAAAAAAAMB34V9E+WtCUjO9SQAAAABJRU5ErkJggg==;" vertex="1" parent="2">
                    <mxGeometry x="210" y="30" width="100.44" height="100" as="geometry"/>
                </mxCell>
                <mxCell id="6" value="AWS" style="swimlane;whiteSpace=wrap;html=1;fillColor=none;" vertex="1" parent="1">
                    <mxGeometry x="510" y="10" width="330" height="370" as="geometry"/>
                </mxCell>
                <mxCell id="12" value="EC2: t2.macro" style="points=[[0,0],[0.25,0],[0.5,0],[0.75,0],[1,0],[1,0.25],[1,0.5],[1,0.75],[1,1],[0.75,1],[0.5,1],[0.25,1],[0,1],[0,0.75],[0,0.5],[0,0.25]];outlineConnect=0;gradientColor=none;html=1;whiteSpace=wrap;fontSize=12;fontStyle=0;container=1;pointerEvents=0;collapsible=0;recursiveResize=0;shape=mxgraph.aws4.group;grIcon=mxgraph.aws4.group_ec2_instance_contents;strokeColor=#D86613;fillColor=none;verticalAlign=top;align=left;spacingLeft=30;fontColor=#D86613;dashed=0;" vertex="1" parent="6">
                    <mxGeometry x="20" y="30" width="300" height="120" as="geometry"/>
                </mxCell>
                <mxCell id="7" value="" style="shape=image;verticalLabelPosition=bottom;labelBackgroundColor=default;verticalAlign=top;aspect=fixed;imageAspect=0;image=https://www.misp-project.org/img/logo.png;" vertex="1" parent="12">
                    <mxGeometry x="34.12" y="38" width="231.76" height="62" as="geometry"/>
                </mxCell>
                <mxCell id="75" style="edgeStyle=none;html=1;dashed=1;" edge="1" parent="6" source="13" target="12">
                    <mxGeometry relative="1" as="geometry"/>
                </mxCell>
                <mxCell id="13" value="EC2: t2.macro" style="points=[[0,0],[0.25,0],[0.5,0],[0.75,0],[1,0],[1,0.25],[1,0.5],[1,0.75],[1,1],[0.75,1],[0.5,1],[0.25,1],[0,1],[0,0.75],[0,0.5],[0,0.25]];outlineConnect=0;gradientColor=none;html=1;whiteSpace=wrap;fontSize=12;fontStyle=0;container=1;pointerEvents=0;collapsible=0;recursiveResize=0;shape=mxgraph.aws4.group;grIcon=mxgraph.aws4.group_ec2_instance_contents;strokeColor=#D86613;fillColor=none;verticalAlign=top;align=left;spacingLeft=30;fontColor=#D86613;dashed=0;" vertex="1" parent="6">
                    <mxGeometry x="10" y="180" width="310" height="170" as="geometry"/>
                </mxCell>
                <mxCell id="10" value="" style="shape=image;verticalLabelPosition=bottom;labelBackgroundColor=default;verticalAlign=top;aspect=fixed;imageAspect=0;image=https://assets-global.website-files.com/5e0fd4aa98f2dc47fcd00bb7/5e14d9029a07bd0ec2ed1c1e_Will-Migrating-to-the-Cloud-Save-Money-5.png;" vertex="1" parent="13">
                    <mxGeometry x="19.740000000000002" y="50" width="270.52" height="90" as="geometry"/>
                </mxCell>
                <mxCell id="79" style="edgeStyle=none;html=1;dashed=1;" edge="1" parent="1" target="24">
                    <mxGeometry relative="1" as="geometry">
                        <mxPoint x="510" y="530" as="sourcePoint"/>
                    </mxGeometry>
                </mxCell>
                <mxCell id="85" value="Pull Files" style="edgeLabel;html=1;align=center;verticalAlign=middle;resizable=0;points=[];" vertex="1" connectable="0" parent="79">
                    <mxGeometry x="-0.3059" relative="1" as="geometry">
                        <mxPoint x="-11" y="-10" as="offset"/>
                    </mxGeometry>
                </mxCell>
                <mxCell id="15" value="VirtualBox" style="swimlane;whiteSpace=wrap;html=1;" vertex="1" parent="1">
                    <mxGeometry x="510" y="430" width="330" height="330" as="geometry"/>
                </mxCell>
                <mxCell id="14" value="" style="sketch=0;aspect=fixed;html=1;points=[];align=center;image;fontSize=12;image=img/lib/mscae/VirtualMachineWindows.svg;" vertex="1" parent="15">
                    <mxGeometry x="210" y="39" width="110" height="101.2" as="geometry"/>
                </mxCell>
                <mxCell id="41" value="" style="sketch=0;aspect=fixed;html=1;points=[];align=center;image;fontSize=12;image=img/lib/mscae/VirtualMachineWindows.svg;" vertex="1" parent="15">
                    <mxGeometry x="36.48000000000002" y="39" width="110.2" height="101.38" as="geometry"/>
                </mxCell>
                <mxCell id="80" style="edgeStyle=orthogonalEdgeStyle;html=1;dashed=1;" edge="1" parent="15" source="16" target="14">
                    <mxGeometry relative="1" as="geometry">
                        <Array as="points">
                            <mxPoint x="180" y="170"/>
                            <mxPoint x="265" y="170"/>
                        </Array>
                    </mxGeometry>
                </mxCell>
                <mxCell id="83" style="edgeStyle=orthogonalEdgeStyle;html=1;entryX=0.528;entryY=1.021;entryDx=0;entryDy=0;entryPerimeter=0;dashed=1;" edge="1" parent="15" source="16" target="41">
                    <mxGeometry relative="1" as="geometry">
                        <Array as="points">
                            <mxPoint x="180" y="170"/>
                            <mxPoint x="95" y="170"/>
                        </Array>
                    </mxGeometry>
                </mxCell>
                <mxCell id="90" value="msfconsole" style="edgeLabel;html=1;align=center;verticalAlign=middle;resizable=0;points=[];" vertex="1" connectable="0" parent="83">
                    <mxGeometry x="-0.8362" relative="1" as="geometry">
                        <mxPoint x="-2" y="-7" as="offset"/>
                    </mxGeometry>
                </mxCell>
                <mxCell id="22" value="" style="group" vertex="1" connectable="0" parent="15">
                    <mxGeometry x="120" y="220" width="116.68" height="105" as="geometry"/>
                </mxCell>
                <mxCell id="16" value="" style="sketch=0;aspect=fixed;pointerEvents=1;shadow=0;dashed=0;html=1;strokeColor=none;labelPosition=center;verticalLabelPosition=bottom;verticalAlign=top;align=center;fillColor=#00188D;shape=mxgraph.azure.computer" vertex="1" parent="22">
                    <mxGeometry width="116.68" height="105" as="geometry"/>
                </mxCell>
                <mxCell id="21" value="" style="shape=image;verticalLabelPosition=bottom;labelBackgroundColor=default;verticalAlign=top;aspect=fixed;imageAspect=0;image=data:image/png,iVBORw0KGgoAAAANSUhEUgAAASsAAACpCAMAAABEdevhAAAAgVBMVEX///82e/Aud/B1ofTr8v0fcu/W4/uHrPUxefDe6fwode9zn/R5o/Q3fvEjc+9PifGnv/dbj/LD1foVbu/I2fpDhPFjlvPO3fuuxvjm7v2owvdKh/G0yvn5+/+UtPbw9f5sm/OauPeBqPWNr/ZWjfK5zvkAZO4Ja+9ilPOfvPeYtvYm0goUAAAH8UlEQVR4nO2da3uiOhCAhYoGrPSCtrVKvbTdbc///4FHLcwMkMtolwrpvF92nzYIvCVhkkziYCAIgiAIgiAIgiAIgiAIgs+MtteTq1/I5Hp8OzvJ1Ps8S8JfSpJEwT1f1S5Twa8mG3NVjaNLX+vFiV55qmbZpa+0A2S8Ruvml1fAI+qGoyqWx+pAFjNcPaWXvsxOkD4xXL0kl77MTpC8MFyNw6K0Sg5cOtxpkURH6SrkhA2lK3W9iON4MfSXw/3VWSzPcZUwQwzPKKMAceXmPFecxs0/xBWf81xtW7+uLiKu+IgrPue5+mz9urqIuOIjrvic5+q29evqIuKKj7jiI674iCs+4oqPuOIjrviIKz7iio+44nOeq+fWr6uLiCs+rbjC2bWRpVT8CMwWjjPHt8+AM02FTO65iu7JsfTQXrIVV8ssKvhjLvTytywUZcvcceaHCGZ/06nrMvH0ylV0T/wHLmNiL9mKqztIPcqMZVaY9abma8eJ1zRFLnp0lH6D0zu17onhs8Nre8lLuRpFmMqVumpgNUHHdUskS8wLV0OSceN8TuiTcnwOHTXWL1f5vMy42atyZzPF1SzV9N1efOmVqw98rFLGiWt5X+GdvXi3XDkeBZerHTY/ycZ92nwaVMnsL3efXH2SVyAnT3VWTxR3zCPNoWAXXH2rDt4TVVNH+HdkUn4c/Lu0lu+Uq/Q7rmKsgCriBNbr8oBwV35uZusPdMzVN+rgOsD3f8Ra3ALBVTQsLYQ72wHeuCKhUsSbvi4/Tc0HOwg1bCGWL642JFqwPhzAolyAkLwM7uERs4VYnrh6JdHCB+OMAxJcRbNBXv4/tB3sh6sVLlJRzrGFgvLOVbDvYT+UlTCyvEC9cPVIooWAEy3QY8KHAWnnbcPYPrhaYCcwSDjRwoFJedDxpMPywbQFsR64yqenRguHg5LyoHRIr9cWYnng6oOMLbAngla11vwZKqHxgkn38d+6uvsxV6TDnPLXXdxVquC+HkPMMTW9G1pzVb5YWnd1i+06Z2yhYAFHZcU4M8SyxmrcmqvND7kiK6XDOeNUBdtGQAWVUG0Mx3TsuVrZyzVdxdBE86OFA3No2ctTDqEqR4YZjZ67WtNXoHWMoAoEVyoEwRCOmkY7eu5qSV6BjsHyCtflccdA9IsVVMI3/UH9djXBDnN0yhIxElyh4RxaPsN69l672uIrMHXN7VV4h0coJG0TVELTks+2YtEfcPWOqlwzMIaLCxSdPQeDphCrv65GZGyBtWMGAJ2/IKWx1Fo5QqzeuhoGiH3ot8EnNHNp5QHawBzFRntcT11F1S1omNvWFMA8X+0mcCIo1YZYPXWlSIf5CHOA78AIlVQV51AJ9SFWT10F9Knak1wxTlOAExF1wxB26UOsvrqqww9Fc/iQxj1gJdROMPriSumbGA0YGjSTjiBG1YZY/XZFGi3SW+FdmS6M2ll+129XKhmTvLzIcXDBGoIrzaVhNkikebP22FUyXwx22CNUiTPl8cAtHKEbmIAuny7E6q+rdJMfEvnwR6FhfKAKxmVq1uDxAX6raf865So5IWYotpgkPZ0gZcxMYHC1L9+EJOY2x2g75eqE5wqKvtAmyz05OOZud6cJsbrlij3eTjq9pLPj7kPnTFNa8Z1ydVZeH00mdm4Kdc/fcbL5Wd1y5Whw9HOpJE3UkZhHhhIYNEIsD1xVmnzjTOiR9SmbvjZCLB9cDXHiK0isQ1nPp2z6qupLjnxwRUeTtQE38HZCFWyGWF64ohM6tqEs8howb5dqDrH8cJUTV5ahrFcolrysDbulrv+DQqo24+GHK7oOIMiMQ1lYxrJcDtNCgqxaqi1XHz/rinaiA1NiAwZXpqnlyqU3QqwlnKDfrmhyn2koC4MraweBLMCsZt60tXbpp10NHknopF86SIKrxJZSk2MlrI6ceuOKprgrbeY1BlfGFKsvYE1TEFbeE625amPfD/s6LzKUpXQp/RhcORagknYtpAGIR65GdHSmuSSHBFepfTaRDEZURok8cjX4JLLSxogKBlfOBfPwPQXVEKstV2flIX/T1eAN53WayyYxeyp1JcGP9CEWugrGZnbFUEfHXS3IGHB9+Iks2HXv2oFNH92imbiyfKVEVvwlOu6KbvpRn6a5gmeOcUlbrIQkxOJ941GZJNF1V5AqfrxL2oIbgyYt5MuNSGnPXOXkdiqrRVbYB+KkwaMWcqOeuap2ome6Q1lf1EDiVtw5xTdXlU40DiiTwQPWGnuyLw0Grm25eruUKzoTjUNZWxyUsu/BUIKDDbislzeq2hFXN4kq+GsuNMrCslQIQ1lTOJK5yP49U3CuMsTC09uAmAE+IXUk0rXi6nMCWEqtsNRkU1z3Bn/CyhAZrMlnlMJfJxw2RayywHM6/jytuPIUccVHXPGRfWv5iCs+4oqPuOIjrviIKz7iis9SXLERV3zEFR9xxWcurtjAjp3iyom44iOu+IgrPuKKz1RcsRFXfMQVn7NchbvZvQW60mbkEWW6uXlrUwKkJ4aaJchARBNc8Iuo+g9soMHJSnliLVWrrNCtf62GD7iWex+JWUsgvXdl2CewBisDxXdXzN3hHjm3XskG8tBV5s7NPPLKuHfPXUXsja93mbMaeu1KZZyAoWB2kyWWrPE9CY0ZMnvZnpFEc+4m/V+MPneTKxt0ifzGXrRXTK63J+zlLAiCIAiCIAiCIAiCIAhCD/kfFabE3yC/8DsAAAAASUVORK5CYII=;" vertex="1" parent="22">
                    <mxGeometry x="14.11" y="15" width="88.46" height="50" as="geometry"/>
                </mxCell>
                <mxCell id="52" style="edgeStyle=orthogonalEdgeStyle;html=1;entryX=0;entryY=0.5;entryDx=0;entryDy=0;dashed=1;curved=1;" edge="1" parent="1" source="23" target="12">
                    <mxGeometry relative="1" as="geometry"/>
                </mxCell>
                <mxCell id="87" value="PyMISP - Query Data" style="edgeLabel;html=1;align=center;verticalAlign=middle;resizable=0;points=[];" vertex="1" connectable="0" parent="52">
                    <mxGeometry x="0.0342" y="-1" relative="1" as="geometry">
                        <mxPoint x="9" as="offset"/>
                    </mxGeometry>
                </mxCell>
                <mxCell id="55" style="edgeStyle=orthogonalEdgeStyle;html=1;dashed=1;" edge="1" parent="1" source="23">
                    <mxGeometry relative="1" as="geometry">
                        <mxPoint x="510" y="470" as="targetPoint"/>
                        <Array as="points">
                            <mxPoint x="510" y="470"/>
                        </Array>
                    </mxGeometry>
                </mxCell>
                <mxCell id="84" value="Vagrant APIs" style="edgeLabel;html=1;align=center;verticalAlign=middle;resizable=0;points=[];" vertex="1" connectable="0" parent="55">
                    <mxGeometry x="0.1048" y="-2" relative="1" as="geometry">
                        <mxPoint x="-95" y="-12" as="offset"/>
                    </mxGeometry>
                </mxCell>
                <mxCell id="78" style="edgeStyle=none;html=1;dashed=1;" edge="1" parent="1" source="23" target="24">
                    <mxGeometry relative="1" as="geometry"/>
                </mxCell>
                <mxCell id="86" value="Save Files" style="edgeLabel;html=1;align=center;verticalAlign=middle;resizable=0;points=[];" vertex="1" connectable="0" parent="78">
                    <mxGeometry x="0.2347" y="1" relative="1" as="geometry">
                        <mxPoint x="-7" y="11" as="offset"/>
                    </mxGeometry>
                </mxCell>
                <mxCell id="23" value="Management Console&lt;br&gt;" style="fontColor=#0066CC;verticalAlign=top;verticalLabelPosition=bottom;labelPosition=center;align=center;html=1;outlineConnect=0;fillColor=#CCCCCC;strokeColor=#6881B3;gradientColor=none;gradientDirection=north;strokeWidth=2;shape=mxgraph.networks.terminal;" vertex="1" parent="1">
                    <mxGeometry x="50" y="430" width="180" height="200" as="geometry"/>
                </mxCell>
                <mxCell id="24" value="File Share (per VM)" style="sketch=0;pointerEvents=1;shadow=0;dashed=0;html=1;strokeColor=none;fillColor=#505050;labelPosition=center;verticalLabelPosition=bottom;verticalAlign=top;outlineConnect=0;align=center;shape=mxgraph.office.services.network_file_share_service;" vertex="1" parent="1">
                    <mxGeometry x="355" y="495" width="70" height="70" as="geometry"/>
                </mxCell>
                <mxCell id="28" value="" style="shape=image;verticalLabelPosition=bottom;labelBackgroundColor=default;verticalAlign=top;aspect=fixed;imageAspect=0;image=https://upload.wikimedia.org/wikipedia/commons/thumb/3/38/Jupyter_logo.svg/640px-Jupyter_logo.svg.png;" vertex="1" parent="1">
                    <mxGeometry x="67.77" y="507.5" width="38.85" height="45" as="geometry"/>
                </mxCell>
                <mxCell id="29" value="" style="shape=image;verticalLabelPosition=bottom;labelBackgroundColor=default;verticalAlign=top;aspect=fixed;imageAspect=0;image=https://upload.wikimedia.org/wikipedia/commons/thumb/c/c3/Python-logo-notext.svg/1200px-Python-logo-notext.svg.png;" vertex="1" parent="1">
                    <mxGeometry x="66.63" y="450" width="41.12" height="45" as="geometry"/>
                </mxCell>
                <mxCell id="53" style="edgeStyle=orthogonalEdgeStyle;html=1;dashed=1;exitX=0.46;exitY=-0.023;exitDx=0;exitDy=0;exitPerimeter=0;entryX=0.25;entryY=1;entryDx=0;entryDy=0;" edge="1" parent="1" source="41" target="13">
                    <mxGeometry relative="1" as="geometry">
                        <mxPoint x="598" y="330" as="targetPoint"/>
                    </mxGeometry>
                </mxCell>
                <mxCell id="88" value="Logs" style="edgeLabel;html=1;align=center;verticalAlign=middle;resizable=0;points=[];" vertex="1" connectable="0" parent="53">
                    <mxGeometry x="0.1527" y="2" relative="1" as="geometry">
                        <mxPoint as="offset"/>
                    </mxGeometry>
                </mxCell>
                <mxCell id="73" style="edgeStyle=none;html=1;dashed=1;entryX=0.823;entryY=1;entryDx=0;entryDy=0;entryPerimeter=0;exitX=0.501;exitY=0.01;exitDx=0;exitDy=0;exitPerimeter=0;" edge="1" parent="1" source="14" target="13">
                    <mxGeometry relative="1" as="geometry">
                        <mxPoint x="770" y="330" as="targetPoint"/>
                    </mxGeometry>
                </mxCell>
                <mxCell id="89" value="Logs" style="edgeLabel;html=1;align=center;verticalAlign=middle;resizable=0;points=[];" vertex="1" connectable="0" parent="73">
                    <mxGeometry x="0.3031" relative="1" as="geometry">
                        <mxPoint as="offset"/>
                    </mxGeometry>
                </mxCell>
                <mxCell id="91" style="edgeStyle=orthogonalEdgeStyle;html=1;exitX=0;exitY=0.25;exitDx=0;exitDy=0;dashed=1;" edge="1" parent="1" source="12">
                    <mxGeometry relative="1" as="geometry">
                        <mxPoint x="330" y="70" as="targetPoint"/>
                    </mxGeometry>
                </mxCell>
                <mxCell id="92" value="Pull IOCs, Attack-Patterns" style="edgeLabel;html=1;align=center;verticalAlign=middle;resizable=0;points=[];" vertex="1" connectable="0" parent="91">
                    <mxGeometry x="0.1117" relative="1" as="geometry">
                        <mxPoint x="6" y="-10" as="offset"/>
                    </mxGeometry>
                </mxCell>
                <mxCell id="93" value="" style="shape=image;verticalLabelPosition=bottom;labelBackgroundColor=default;verticalAlign=top;aspect=fixed;imageAspect=0;image=https://media.trustradius.com/product-logos/Om/zv/1VCT5FRFFDZQ.PNG;" vertex="1" parent="1">
                    <mxGeometry x="154.53" y="460" width="64.15" height="80" as="geometry"/>
                </mxCell>
            </root>
        </mxGraphModel>
    </diagram>
</mxfile>